<?xml version="1.0" encoding="UTF-8" standalone="no"?><!DOCTYPE svg PUBLIC "-//W3C//DTD SVG 1.1//EN" "http://www.w3.org/Graphics/SVG/1.1/DTD/svg11.dtd"><svg width="100%" height="100%" viewBox="0 0 56 56" version="1.1" xmlns="http://www.w3.org/2000/svg" xmlns:xlink="http://www.w3.org/1999/xlink" xml:space="preserve" xmlns:serif="http://www.serif.com/" style="fill-rule:evenodd;clip-rule:evenodd;stroke-linejoin:round;stroke-miterlimit:2;"><rect id="baaeed" x="0" y="0" width="56" height="56" style="fill:none;"/><g id="baaeed1" serif:id="baaeed"><path id="Shape" d="M24.725,28.516c0,-1.828 1.48,-3.314 3.301,-3.314c1.821,0 3.301,1.485 3.301,3.314c0,1.828 -1.48,3.314 -3.301,3.314c-1.821,0 -3.301,-1.485 -3.301,-3.314Zm18.945,-4.532c0.67,2.349 0.822,4.824 0.43,7.249c-0.822,4.977 -3.958,9.344 -8.372,11.743c-4.907,2.666 -11.331,2.476 -16.099,-0.419c-0.177,-0.114 -0.291,-0.279 -0.316,-0.482c-0.038,-0.203 0.025,-0.419 0.164,-0.571l3.63,-4.063c0.051,-0.051 0.076,-0.14 0.063,-0.216c-0.013,-0.076 -0.063,-0.152 -0.126,-0.19c-2.985,-1.777 -4.831,-5.027 -4.831,-8.481c0,-4.697 3.326,-8.76 7.929,-9.674c0.063,-0.025 0.139,-0.038 0.202,-0.051c0.316,-0.051 0.658,-0.089 1.05,-0.114l0.164,-0.013c0.089,-0.013 0.19,-0.013 0.278,-0.013l0.569,0c0.24,0.013 0.493,0.025 0.746,0.051c0.379,0.051 0.759,0.114 1.138,0.203c0.076,0.025 0.152,0.051 0.253,0.089c3.845,1.066 6.728,4.431 7.158,8.392c0.215,1.904 -0.126,3.809 -0.974,5.51c-0.24,0.47 -0.683,0.787 -1.201,0.851c-0.519,0.051 -0.999,-0.14 -1.328,-0.546c-0.367,-0.457 -0.43,-1.13 -0.139,-1.714c0.632,-1.27 0.835,-2.691 0.607,-4.113c-0.481,-2.945 -2.871,-5.269 -5.805,-5.65c-0.316,-0.038 -0.62,-0.051 -0.999,-0.051l-0.278,0.013c-1.872,0.114 -3.617,1.016 -4.818,2.476c-1.214,1.473 -1.733,3.339 -1.492,5.243c0.392,3.022 2.77,5.434 5.792,5.853c1.062,0.152 2.112,0.051 3.124,-0.292c0.266,-0.089 0.556,-0.013 0.734,0.19l3.984,4.469c0.089,0.102 0.24,0.127 0.354,0.051c4.793,-3.123 7.044,-8.925 5.628,-14.46c-0.329,-1.308 -0.86,-2.552 -1.556,-3.694c-0.392,-0.635 -0.278,-1.46 0.266,-1.942c0.341,-0.292 0.784,-0.432 1.227,-0.368c0.443,0.063 0.835,0.317 1.062,0.698c0.771,1.244 1.366,2.603 1.783,4.037Z" style="fill:#7566f1;"/><path id="Shape1" serif:id="Shape" d="M14.797,27.424c0.531,-6.437 5.767,-11.655 12.179,-12.15c2.555,-0.19 5.097,0.343 7.335,1.562c0.62,0.343 1.391,0.203 1.846,-0.343c0.304,-0.343 0.417,-0.8 0.341,-1.257c-0.089,-0.457 -0.367,-0.838 -0.771,-1.066c-2.365,-1.282 -5.021,-1.955 -7.727,-1.955c-0.329,0 -0.658,0.013 -0.986,0.025c-8.195,0.495 -14.759,7.071 -15.252,15.298c-0.228,3.809 0.873,7.592 3.124,10.664c0.266,0.368 0.696,0.597 1.151,0.622c0.455,0.013 0.885,-0.165 1.189,-0.495c0.468,-0.533 0.506,-1.333 0.089,-1.904c-1.884,-2.603 -2.782,-5.789 -2.517,-9.001Z" style="fill:#a79eee;fill-opacity:0.7;fill-rule:nonzero;"/></g></svg>