<svg viewBox="0 0 1042 1042" xmlns="http://www.w3.org/2000/svg" xml:space="preserve" style="fill-rule:evenodd;clip-rule:evenodd;stroke-linejoin:round;stroke-miterlimit:2"><path style="fill:none" d="M0 0h1041.667v1041.667H0z"/><path d="M811.529 458.472c37.466-4.515 59.928-45.771 44.515-80.587-20.913-47.24-80.729-34.527-121.315-34.273-132.47.83-264.968-.785-397.441-.047-180.08 18.636-226.074 271.765-56.839 346.496 23.93 10.566 47.153 14.12 72.885 17.31 25.855 46.451 90.525 157.767 90.525 157.767l-83.448.07C130.202 870.661-39.934 655.986 23.994 427.533c41.488-148.266 175.26-246.834 326.264-249.079 148.651 5.164 301.574-6.658 449.73 0 78.547 3.533 146.532 35.043 191.253 101.865 81.43 121.678 25.366 285.965-118.07 316.674l158.081 268.144-183.184-.273-241.761-406.391h205.224Zm-312.55 0 237.855 406.674H554.091l-150.835-259.33h-89.921V458.473z" style="fill:#6a82fb"/></svg>