<?xml version="1.0" encoding="UTF-8" standalone="no"?><!DOCTYPE svg PUBLIC "-//W3C//DTD SVG 1.1//EN" "http://www.w3.org/Graphics/SVG/1.1/DTD/svg11.dtd"><svg width="100%" height="100%" viewBox="0 0 56 56" version="1.1" xmlns="http://www.w3.org/2000/svg" xmlns:xlink="http://www.w3.org/1999/xlink" xml:space="preserve" xmlns:serif="http://www.serif.com/" style="fill-rule:evenodd;clip-rule:evenodd;stroke-linejoin:round;stroke-miterlimit:2;"><rect id="khamsat" x="0" y="0" width="56" height="56" style="fill:none;"/><g id="khamsat1" serif:id="khamsat"><path id="path47" d="M24.56,29.075c-0.976,1.074 -1.463,2.358 -1.464,3.856l-4.829,0c0,-2.813 0.943,-5.219 2.823,-7.222c1.474,-1.569 3.246,-2.519 5.313,-2.859l0,4.978c-0.697,0.255 -1.314,0.667 -1.843,1.247Zm1.843,8.684l0,4.83l-8.136,0l0,-4.83l8.136,0Zm8.768,-12.165c1.927,1.853 2.916,4.154 2.959,6.906l0,0.406c-0.074,2.645 -1.062,4.907 -2.959,6.792c-1.896,1.881 -4.168,2.845 -6.812,2.891l-0.658,0l0,-4.83l0.497,0c1.361,0 2.531,-0.472 3.516,-1.417c0.984,-0.945 1.511,-2.091 1.585,-3.435l0.025,-0.135l0,-0.159c-0.016,-1.361 -0.508,-2.535 -1.477,-3.525c-0.965,-0.99 -2.128,-1.508 -3.489,-1.554c-0.226,-0.005 -0.444,0.002 -0.658,0.02l0,-4.837c0.164,-0.007 0.329,-0.011 0.497,-0.011c2.72,0.075 5.045,1.038 6.974,2.89Zm-8.768,-11.869l0,5.018l-3.516,0l0,3.957c-2.453,1.399 -4.123,3.416 -5.019,6.055l0,-15.031l8.535,0Zm10.481,0.001l0,5.018l-9.184,0l0,-5.018l9.184,0Z" style="fill:#f3ad2d;"/></g></svg>