<?xml version="1.0" encoding="UTF-8" standalone="no"?><!DOCTYPE svg PUBLIC "-//W3C//DTD SVG 1.1//EN" "http://www.w3.org/Graphics/SVG/1.1/DTD/svg11.dtd"><svg width="100%" height="100%" viewBox="0 0 56 56" version="1.1" xmlns="http://www.w3.org/2000/svg" xmlns:xlink="http://www.w3.org/1999/xlink" xml:space="preserve" xmlns:serif="http://www.serif.com/" style="fill-rule:evenodd;clip-rule:evenodd;stroke-linejoin:round;stroke-miterlimit:2;"><rect id="picalica" x="0" y="0" width="56" height="56" style="fill:none;"/><g id="picalica1" serif:id="picalica"><path d="M12.444,28c0,-8.585 6.97,-15.555 15.556,-15.555l0.008,-0c8.588,0 15.547,6.975 15.547,15.546l-0,0.008c0,7.586 -5.443,13.911 -12.633,15.28c-0.944,0.18 -1.918,0.274 -2.914,0.275l-0.008,-0c-6.76,0 -12.519,-4.321 -14.662,-10.349c-0.578,-1.626 -0.893,-3.375 -0.894,-5.197l0,-0.008Zm20.062,-2.554c-0.102,-0.373 -0.255,-0.73 -0.458,-1.052c-0.187,-0.322 -0.424,-0.628 -0.696,-0.9c-0.272,-0.271 -0.577,-0.509 -0.9,-0.696c-0.322,-0.187 -0.679,-0.34 -1.052,-0.458c-0.373,-0.102 -0.764,-0.153 -1.171,-0.153l-2.308,0c-0.17,0 -0.339,0.034 -0.509,0.102c-0.153,0.068 -0.289,0.153 -0.407,0.272c-0.119,0.119 -0.204,0.255 -0.271,0.407c-0.068,0.153 -0.102,0.322 -0.102,0.492l0,10.353c0,0.339 0.136,0.662 0.373,0.9c0.238,0.238 0.56,0.373 0.9,0.373c0.339,0 0.662,-0.136 0.9,-0.373c0.238,-0.238 0.373,-0.56 0.373,-0.9l0,-2.749l1.018,0c1.222,0 2.274,-0.441 3.14,-1.307c0.866,-0.866 1.307,-1.935 1.307,-3.14c0.017,-0.39 -0.034,-0.781 -0.136,-1.171Zm-2.546,1.918c-0.102,0.238 -0.238,0.424 -0.407,0.611c-0.17,0.17 -0.373,0.305 -0.611,0.407c-0.221,0.102 -0.458,0.153 -0.73,0.153l-1.018,0l0,-3.802l1.018,0c0.255,0 0.492,0.051 0.73,0.153c0.238,0.102 0.441,0.238 0.611,0.407c0.17,0.17 0.305,0.373 0.407,0.611c0.102,0.221 0.153,0.475 0.153,0.747c0,0.238 -0.051,0.475 -0.153,0.713Zm-1.952,10.183c-5.262,0 -9.539,-4.277 -9.539,-9.538c0,-0.594 -0.475,-1.052 -1.052,-1.052c-0.577,0 -1.052,0.475 -1.052,1.052c0,6.432 5.228,11.66 11.66,11.66c0.594,0 1.052,-0.475 1.052,-1.052c-0.017,-0.594 -0.492,-1.069 -1.069,-1.069Zm0,-21.215c-0.594,0 -1.052,0.475 -1.052,1.052c0,0.594 0.475,1.052 1.052,1.052c5.262,0 9.539,4.277 9.539,9.538c0,0.594 0.475,1.069 1.052,1.069c0.594,0 1.052,-0.475 1.052,-1.069c0.017,-6.398 -5.211,-11.643 -11.643,-11.643Z" style="fill:#615d9b;"/></g></svg>